Coordinates
version=1
nRows=17
nColumns=23
inDegrees=yes

Units are S.I. units (second, meters, Newtons, ...)
If the header above contains a line with 'inDegrees', this indicates whether rotational values are in degrees (yes) or radians (no).

endheader
time	pelvis_tilt	pelvis_list	pelvis_rotation	pelvis_tx	pelvis_ty	pelvis_tz	hip_flexion_r	hip_adduction_r	hip_rotation_r	knee_angle_r	knee_angle_r_beta	ankle_angle_r	subtalar_angle_r	mtp_angle_r	hip_flexion_l	hip_adduction_l	hip_rotation_l	knee_angle_l	knee_angle_l_beta	ankle_angle_l	subtalar_angle_l	mtp_angle_l
     14.90666667	      3.03382032	      0.15183659	     -2.73625452	      2.25741621	      1.03253774	      1.02652259	    -13.79999701	      1.33440321	      0.47095394	     26.57983267	      0.46390559	      5.05142049	     -6.92878951	      0.00000000	     24.80454576	     -2.21515354	     -3.85095860	     46.47580647	      0.81115585	      7.05415193	    -22.54967034	      0.00000000
     14.91333333	      2.91628768	      0.75964203	     -2.49128077	      2.25868362	      1.03664900	      1.02622422	    -14.92531402	      0.48727522	     -0.60128136	     25.55291812	      0.44598255	      2.33893885	     -6.19125184	      0.00000000	     24.75255959	     -1.63706285	     -4.96799829	     43.31271708	      0.75594952	      7.09212764	    -21.50994286	      0.00000000
     14.92000000	      2.58316752	      1.27008204	     -2.17234559	      2.25987901	      1.04036724	      1.02557173	    -15.72537138	     -0.20347372	     -1.60548852	     24.67013899	      0.43057515	     -0.37711606	     -5.53738000	      0.00000000	     24.90499842	     -1.00302189	     -5.80411755	     40.17580280	      0.70120004	      7.10308292	    -20.11826533	      0.00000000
     14.92666667	      1.86762822	      1.60925541	     -1.72285478	      2.26105931	      1.04341802	      1.02440567	    -16.00166158	     -0.65895845	     -2.55803324	     23.98886990	      0.41868476	     -3.15592473	     -5.11825477	      0.00000000	     25.48393606	     -0.37125649	     -6.24580991	     37.16631145	      0.64867451	      7.08949950	    -18.59108137	      0.00000000
     14.93333333	      2.05207399	      2.14936067	     -1.46080749	      2.26206574	      1.04734214	      1.02342967	    -17.17965640	     -1.43241372	     -3.59024825	     23.36739336	      0.40783795	     -5.77028363	     -4.31253244	      0.00000000	     24.93922573	      0.48241696	     -6.86094470	     34.04004431	      0.59411085	      7.16793782	    -16.63503192	      0.00000000
     14.94000000	      1.77122784	      2.48312537	     -1.08052862	      2.26304538	      1.05044544	      1.02198233	    -17.72842088	     -1.93285651	     -4.47738958	     22.97931441	      0.40106470	     -8.35206135	     -3.76707191	      0.00000000	     24.92994540	      1.29291368	     -6.92579943	     31.12104333	      0.54316467	      7.20908378	    -14.61084893	      0.00000000
     14.94666667	      1.36307440	      2.72951716	     -0.67825579	      2.26402692	      1.05307742	      1.02026208	    -18.01287790	     -2.33983178	     -5.25657466	     22.82031888	      0.39828970	    -10.85279177	     -3.38283936	      0.00000000	     25.06013650	      2.10349964	     -6.65124068	     28.40017148	      0.49567650	      7.22520776	    -12.56877517	      0.00000000
     14.95333333	      0.88344171	      2.88421517	     -0.33733058	      2.26494340	      1.05539607	      1.01851543	    -18.08413869	     -2.67297132	     -5.83022703	     22.86600137	      0.39908701	    -13.20307003	     -3.11292477	      0.00000000	     25.23362339	      2.85812852	     -6.06335306	     25.83874093	      0.45097110	      7.19271929	    -10.53740717	      0.00000000
     14.96000000	      1.16662078	      3.23067571	     -0.14933279	      2.26573982	      1.05813948	      1.01701347	    -18.87884717	     -3.27490608	     -6.44840811	     23.08002959	      0.40282251	    -15.31878935	     -2.62938951	      0.00000000	     24.53274037	      3.72755291	     -5.64970969	     23.41877622	      0.40873475	      7.30634114	     -8.21614140	      0.00000000
     14.96666667	      0.78507215	      3.35675697	      0.10264769	      2.26664403	      1.05975836	      1.01532049	    -18.77953053	     -3.62059400	     -6.80964029	     23.61982939	      0.41224379	    -17.29516576	     -2.62969210	      0.00000000	     24.60349130	      4.41053816	     -4.81210307	     21.36339917	      0.37286165	      7.32492018	     -6.26549366	      0.00000000
     14.97333333	      1.07769564	      3.65079965	      0.10791621	      2.26735657	      1.06171615	      1.01407703	    -19.25761472	     -4.23935089	     -7.12292758	     24.38843102	      0.42565842	    -18.99442685	     -2.46881209	      0.00000000	     23.93644161	      5.10028035	     -4.33966447	     19.54541093	      0.34113177	      7.47352447	     -4.05782525	      0.00000000
     14.98000000	      0.97535095	      3.82454357	      0.16640375	      2.26817001	      1.06272095	      1.01278807	    -19.15488482	     -4.72045714	     -7.32879796	     25.46074670	      0.44437386	    -20.49593637	     -2.71361383	      0.00000000	     23.75443718	      5.66599507	     -3.64523968	     18.11959359	      0.31624657	      7.62692850	     -2.31361033	      0.00000000
     14.98666667	      0.99798965	      4.09558559	      0.18279636	      2.26903558	      1.06337497	      1.01174594	    -19.06078064	     -5.31336828	     -7.50136171	     26.78254198	      0.46744354	    -21.75198402	     -3.14144153	      0.00000000	     23.45424104	      6.23885339	     -3.20642199	     16.98709600	      0.29648076	      7.79312970	     -0.65366906	      0.00000000
     14.99333333	      1.35632140	      4.40312811	     -0.12158111	      2.26969250	      1.06387241	      1.01119840	    -19.12043410	     -6.06342864	     -7.44318197	     28.39013419	      0.49550132	    -22.65376192	     -3.60687018	      0.00000000	     22.87705660	      6.65036897	     -3.32136855	     16.26441266	      0.28386755	      8.14293024	      1.06521627	      0.00000000
     15.00000000	      1.57039276	      4.73391743	     -0.34510034	      2.27046603	      1.06365854	      1.01073651	    -18.93718334	     -6.79825833	     -7.39274703	     30.19812052	      0.52705663	    -23.29964366	     -4.35338151	      0.00000000	     22.47378034	      7.07750563	     -3.44289565	     15.82412619	      0.27618310	      8.37998617	      2.33921947	      0.00000000
     15.00666667	      1.86113845	      5.07630799	     -0.59364883	      2.27117450	      1.06289780	      1.01053631	    -18.71958745	     -7.54792881	     -7.32218821	     32.21514735	      0.56226039	    -23.63326720	     -5.34942945	      0.00000000	     22.04235871	      7.45436013	     -3.75471315	     15.72230195	      0.27440594	      8.64399901	      3.30815868	      0.00000000
     15.01333333	      2.22105717	      5.40021059	     -0.63725703	      2.27178209	      1.06157225	      1.01027864	    -18.55926139	     -8.19460506	     -7.42778153	     34.32359958	      0.59905982	    -23.67321587	     -6.56689627	      0.00000000	     21.58621544	      7.86425135	     -3.89221457	     15.95716385	      0.27850505	      8.84668890	      3.70619487	      0.00000000
